<svg width="60" height="14" viewBox="0 0 60 14" fill="none" xmlns="http://www.w3.org/2000/svg">
<g id="star">
<path id="Star 1" d="M6.61583 0.156494L8.03705 4.61263L12.6362 4.61263L8.91541 7.36667L10.3366 11.8228L6.61583 9.06876L2.89504 11.8228L4.31626 7.36667L0.595466 4.61263L5.19462 4.61263L6.61583 0.156494Z" fill="#26740A"/>
<path id="Star 3" d="M30.3541 0.156494L31.7753 4.61263L36.3745 4.61263L32.6537 7.36667L34.0749 11.8228L30.3541 9.06876L26.6333 11.8228L28.0545 7.36667L24.3337 4.61263L28.9329 4.61263L30.3541 0.156494Z" fill="#26740A"/>
<path id="Star 5" d="M41.9593 0.156494L43.3806 4.61263L47.9797 4.61263L44.2589 7.36667L45.6801 11.8228L41.9593 9.06876L38.2385 11.8228L39.6598 7.36667L35.939 4.61263L40.5381 4.61263L41.9593 0.156494Z" fill="#26740A"/>
<path id="Star 6" d="M53.5648 1.80202L54.5097 4.76456L54.6207 5.11263H54.986L58.0692 5.11263L55.5669 6.96479L55.2793 7.17768L55.388 7.5186L56.3389 10.5L53.8623 8.66688L53.5648 8.4467L53.2673 8.66688L50.7907 10.5L51.7416 7.5186L51.8503 7.17768L51.5627 6.96479L49.0604 5.11263L52.1436 5.11263H52.5089L52.62 4.76456L53.5648 1.80202Z" stroke="black"/>
<path id="Star 4" d="M18.7486 0.156494L20.1699 4.61263L24.769 4.61263L21.0482 7.36667L22.4694 11.8228L18.7486 9.06876L15.0279 11.8228L16.4491 7.36667L12.7283 4.61263L17.3274 4.61263L18.7486 0.156494Z" fill="#26740A"/>
</g>
</svg>
